<?xml version="1.0" encoding="utf-8"?>
<svg version="1.1" width="1500" height="500" viewBox="0 0 1500 500" xmlns="http://www.w3.org/2000/svg">
  <rect width="1500" height="500" fill="#471aa0"/>
  <g transform="matrix(0.666667, 0, 0, 0.666667, 250, 125)">
    <svg viewBox="0 0 396 99" data-background-color="#471aa0" preserveAspectRatio="xMidYMid meet" height="375" width="1500" xmlns="http://www.w3.org/2000/svg">
      <g id="tight-bounds" transform="matrix(1,0,0,1,0.2400000000000091,-0.1395703901162051)">
        <svg viewBox="0 0 395.52 99.27914078023241" height="99.27914078023241" width="395.52">
          <g>
            <svg viewBox="0 0 564.7731208240477 141.7632235315075" height="99.27914078023241" width="395.52">
              <g transform="matrix(1,0,0,1,0,41.7703326728554)">
                <svg viewBox="0 0 395.52 58.22255818579669" height="58.22255818579669" width="395.52">
                  <g id="textblocktransform">
                    <svg viewBox="0 0 395.52 58.22255818579669" height="58.22255818579669" width="395.52" id="textblock">
                      <g>
                        <svg viewBox="0 0 395.52 58.22255818579669" height="58.22255818579669" width="395.52">
                          <g transform="matrix(1,0,0,1,0,0)">
                            <svg width="395.52" viewBox="0.35 -36.65 251.33 37" height="58.22255818579669" data-palette-color="#ffffff">
                              <g class="wordmark-text-0" data-fill-palette-color="primary" id="text-0">
                                <path d="M10.15 0.3L10.15 0.3Q6.8 0.3 4.63-0.85 2.45-2 1.4-3.8 0.35-5.6 0.35-7.5L0.35-7.5Q0.35-9.35 1.25-11.03 2.15-12.7 3.83-13.8 5.5-14.9 7.8-14.9L7.8-14.9Q7.75-14.45 7.75-14.08 7.75-13.7 7.75-13.7L7.75-13.7Q7.75-10.35 8.4-8.43 9.05-6.5 10.05-5.68 11.05-4.85 12.1-4.85L12.1-4.85Q13.7-4.85 14.95-6.13 16.2-7.4 16.2-9.1L16.2-9.1Q16.2-11 14.58-12.45 12.95-13.9 10.45-15.65L10.45-15.65Q9.05-16.7 7.48-18.03 5.9-19.35 4.8-21.18 3.7-23 3.7-25.5L3.7-25.5Q3.7-28.1 4.93-30.1 6.15-32.1 8.18-33.48 10.2-34.85 12.63-35.58 15.05-36.3 17.45-36.3L17.45-36.3Q20.4-36.3 22.3-35.35 24.2-34.4 25.15-32.9 26.1-31.4 26.1-29.8L26.1-29.8Q26.1-28.3 25.28-26.93 24.45-25.55 22.85-24.7 21.25-23.85 18.9-23.85L18.9-23.85Q19.05-24.55 19.1-25.13 19.15-25.7 19.15-26.15L19.15-26.15Q19.15-28.65 18.07-29.73 17-30.8 15.7-30.8L15.7-30.8Q14.45-30.8 13.3-29.88 12.15-28.95 12.15-26.9L12.15-26.9Q12.15-25.15 13.08-23.9 14-22.65 15.48-21.7 16.95-20.75 18.6-19.85L18.6-19.85Q20.3-18.95 21.88-17.88 23.45-16.8 24.5-15.35 25.55-13.9 25.55-11.7L25.55-11.7Q25.55-9.4 24.3-7.23 23.05-5.05 20.9-3.38 18.75-1.7 15.98-0.7 13.2 0.3 10.15 0.3ZM35.75 0.2L35.75 0.2Q34.15 0.2 32.72-0.53 31.3-1.25 30.42-2.8 29.55-4.35 29.55-6.75L29.55-6.75Q29.55-8.05 29.8-10.15 30.05-12.25 30.47-14.75 30.9-17.25 31.35-19.75L31.35-19.75Q30.35-19.7 29.42-19.55 28.5-19.4 27.6-19.2L27.6-19.2 27.5-19.55Q28.5-20.75 29.6-21.6 30.7-22.45 31.9-23L31.9-23Q32.55-26.3 33-28.73 33.45-31.15 33.45-31.6L33.45-31.6Q33.45-32.45 34.77-33 36.1-33.55 37.75-33.55L37.75-33.55Q39.2-33.55 40.47-33 41.75-32.45 42.2-31.15L42.2-31.15Q41.9-30.85 41.35-28.93 40.8-27 40.2-24.25L40.2-24.25Q41.15-24.2 42.15-24.15 43.15-24.1 44.2-24L44.2-24Q44.3-23.7 44.35-23.35 44.4-23 44.4-22.6L44.4-22.6Q44.4-21.85 44.17-20.98 43.95-20.1 43.65-19.4L43.65-19.4Q42.45-19.5 41.4-19.63 40.35-19.75 39.35-19.8L39.35-19.8Q38.95-17.65 38.62-15.5 38.3-13.35 38.12-11.6 37.95-9.85 37.95-8.85L37.95-8.85Q37.95-6.75 38.72-6.05 39.5-5.35 40.6-5.35L40.6-5.35Q41.6-5.35 42.4-5.75 43.2-6.15 43.55-6.7L43.55-6.7 44.05-6.55Q43.75-4.5 42.45-2.98 41.15-1.45 39.35-0.63 37.55 0.2 35.75 0.2ZM52.15 0.2L52.15 0.2Q50.34 0.2 48.95-1.28 47.55-2.75 47.55-5.45L47.55-5.45Q47.55-6.75 47.84-8.4 48.15-10.05 48.55-11.78 48.95-13.5 49.25-15.03 49.55-16.55 49.55-17.55L49.55-17.55Q49.55-18.6 49.17-19.23 48.8-19.85 48.2-19.85L48.2-19.85Q47.25-19.85 46.25-18.55L46.25-18.55 45.95-18.75Q45.9-19.55 46.3-20.65 46.7-21.75 47.55-22.78 48.4-23.8 49.72-24.5 51.05-25.2 52.84-25.2L52.84-25.2Q55.5-25.2 56.7-23.68 57.9-22.15 57.9-20L57.9-20Q57.9-19.65 57.87-19.28 57.84-18.9 57.8-18.55L57.8-18.55Q59.59-21.8 61.57-23.53 63.55-25.25 65.25-25.25L65.25-25.25Q66.84-25.25 67.59-24 68.34-22.75 68.34-21L68.34-21Q68.34-19.4 67.72-17.75 67.09-16.1 65.87-15.03 64.65-13.95 62.9-14L62.9-14 62.7-14.1Q62.65-15.4 61.84-16.15 61.05-16.9 60.05-16.9L60.05-16.9Q58.7-16.9 57.52-15.55 56.34-14.2 56.34-11.65L56.34-11.65Q56.34-10.1 56.7-8.3 57.05-6.5 57.05-5.25L57.05-5.25Q57.05-3.75 56.34-2.5 55.65-1.25 54.55-0.53 53.45 0.2 52.15 0.2ZM80.59 0.35L80.59 0.35Q76.94 0.35 74.54-1.13 72.14-2.6 70.94-5.03 69.74-7.45 69.74-10.25L69.74-10.25Q69.74-12.9 70.77-15.58 71.79-18.25 73.77-20.45 75.74-22.65 78.57-24 81.39-25.35 84.94-25.35L84.94-25.35Q89.34-25.35 91.37-23.38 93.39-21.4 93.39-18.6L93.39-18.6Q93.39-16.2 92.12-14.18 90.84-12.15 88.74-10.93 86.64-9.7 84.14-9.7L84.14-9.7Q82.84-9.7 81.49-10.1 80.14-10.5 78.84-11.35L78.84-11.35Q79.09-8.25 80.64-6.85 82.19-5.45 84.34-5.45L84.34-5.45Q85.84-5.45 87.34-6.03 88.84-6.6 90.12-7.53 91.39-8.45 92.09-9.5L92.09-9.5 92.44-9.25Q92.44-6.65 91.37-4.83 90.29-3 88.54-1.85 86.79-0.7 84.72-0.18 82.64 0.35 80.59 0.35ZM81.74-13.15L81.74-13.15Q83.34-13.15 84.34-14.08 85.34-15 85.84-16.25 86.34-17.5 86.34-18.45L86.34-18.45Q86.34-19.6 85.69-20.38 85.04-21.15 83.89-21.15L83.89-21.15Q82.99-21.15 81.92-20.5 80.84-19.85 79.99-18.28 79.14-16.7 78.89-13.9L78.89-13.9Q80.49-13.15 81.74-13.15ZM114.09 0.25L114.09 0.25Q112.34 0.25 111.04-0.9 109.74-2.05 109.74-4.65L109.74-4.65Q109.74-4.9 109.74-5.15 109.74-5.4 109.79-5.65L109.79-5.65Q108.29-2.65 106.42-1.23 104.54 0.2 102.64 0.2L102.64 0.2Q100.89 0.2 99.34-1.03 97.79-2.25 96.84-4.65 95.89-7.05 95.89-10.45L95.89-10.45Q95.89-13.95 96.86-16.7 97.84-19.45 99.44-21.35 101.04-23.25 102.94-24.23 104.84-25.2 106.64-25.2L106.64-25.2Q108.64-25.2 110.24-23.98 111.84-22.75 112.44-20.1L112.44-20.1Q112.59-20.95 112.67-21.65 112.74-22.35 112.74-22.6L112.74-22.6Q112.79-23.95 114.12-24.6 115.44-25.25 117.04-25.25L117.04-25.25Q118.44-25.25 119.69-24.7 120.94-24.15 121.39-22.85L121.39-22.85 121.49-22.55Q120.89-21.2 120.29-19.3 119.69-17.4 119.19-15.33 118.69-13.25 118.39-11.28 118.09-9.3 118.09-7.8L118.09-7.8Q118.09-6.15 118.44-5.53 118.79-4.9 119.29-4.9L119.29-4.9Q120.14-4.9 120.84-6.1L120.84-6.1 121.24-5.9Q121.24-4.2 120.14-2.8 119.04-1.4 117.39-0.58 115.74 0.25 114.09 0.25ZM105.94-6.1L105.94-6.1Q107.24-6.1 108.81-8.43 110.39-10.75 111.54-15.1L111.54-15.1Q111.64-15.55 111.74-15.98 111.84-16.4 111.89-16.8L111.89-16.8Q111.09-18.65 110.22-19.43 109.34-20.2 108.49-20.2L108.49-20.2Q107.24-20.2 106.17-18.88 105.09-17.55 104.42-15.55 103.74-13.55 103.74-11.55L103.74-11.55Q103.74-8.8 104.37-7.45 104.99-6.1 105.94-6.1ZM129.49 0.2L129.49 0.2Q127.69 0.2 126.26-1.28 124.84-2.75 124.84-5.35L124.84-5.35Q124.84-6.65 125.19-8.33 125.54-10 125.96-11.75 126.39-13.5 126.74-15.05 127.09-16.6 127.09-17.65L127.09-17.65Q127.09-18.5 126.69-19.03 126.29-19.55 125.64-19.55L125.64-19.55Q124.79-19.55 123.79-18.55L123.79-18.55 123.49-18.75Q123.44-19.55 123.84-20.65 124.24-21.75 125.14-22.78 126.04-23.8 127.49-24.5 128.94-25.2 130.94-25.2L130.94-25.2Q133.19-25.2 134.31-23.63 135.44-22.05 135.44-19.85L135.44-19.85Q135.44-19.6 135.44-19.33 135.44-19.05 135.39-18.8L135.39-18.8Q136.34-20.35 137.61-21.8 138.89-23.25 140.51-24.23 142.14-25.2 144.04-25.2L144.04-25.2Q146.49-25.2 147.44-23.63 148.39-22.05 148.39-20.05L148.39-20.05Q148.39-19.65 148.36-19.28 148.34-18.9 148.29-18.55L148.29-18.55Q149.34-20.1 150.61-21.63 151.89-23.15 153.54-24.18 155.19-25.2 157.34-25.2L157.34-25.2Q159.99-25.2 160.96-23.65 161.94-22.1 161.94-20L161.94-20Q161.94-18.15 161.49-15.78 161.04-13.4 160.59-11.1 160.14-8.8 160.14-7.2L160.14-7.2Q160.14-6.25 160.41-5.65 160.69-5.05 161.34-5.05L161.34-5.05Q161.89-5.05 162.36-5.38 162.84-5.7 163.04-6.15L163.04-6.15 163.44-6Q163.44-4.15 162.39-2.75 161.34-1.35 159.74-0.58 158.14 0.2 156.54 0.2L156.54 0.2Q154.59 0.2 153.11-1.1 151.64-2.4 151.64-5.4L151.64-5.4Q151.64-7.25 152.11-9.4 152.59-11.55 153.06-13.58 153.54-15.6 153.54-16.9L153.54-16.9Q153.54-18.75 152.24-18.75L152.24-18.75Q151.29-18.75 150.36-17.98 149.44-17.2 148.71-15.93 147.99-14.65 147.54-13.25 147.09-11.85 147.09-10.55L147.09-10.55Q147.09-9.35 147.36-7.93 147.64-6.5 147.64-5.2L147.64-5.2Q147.64-2.6 146.19-1.2 144.74 0.2 142.79 0.2L142.79 0.2Q140.99 0.2 139.56-1 138.14-2.2 138.14-4.6L138.14-4.6Q138.14-5.7 138.44-7.28 138.74-8.85 139.11-10.58 139.49-12.3 139.79-13.9 140.09-15.5 140.09-16.7L140.09-16.7Q140.09-17.65 139.81-18.2 139.54-18.75 138.74-18.75L138.74-18.75Q137.59-18.75 136.54-17.6 135.49-16.45 134.74-14.83 133.99-13.2 133.74-11.7L133.74-11.7Q133.69-11.35 133.66-11.15 133.64-10.95 133.64-10.95L133.64-10.95Q133.64-9.4 133.99-8.13 134.34-6.85 134.34-5.5L134.34-5.5Q134.34-3.05 132.86-1.43 131.39 0.2 129.49 0.2ZM170.28 0.2L170.28 0.2Q168.59 0.2 167.24-1.07 165.89-2.35 165.89-5.4L165.89-5.4Q165.89-7.4 166.46-9.85 167.03-12.3 167.86-14.93 168.69-17.55 169.53-20 170.39-22.45 170.94-24.45 171.49-26.45 171.49-27.6L171.49-27.6Q171.49-28.95 170.44-28.95L170.44-28.95Q169.19-28.95 168.09-27.53 166.99-26.1 165.64-23.55L165.64-23.55 165.34-23.65Q165.34-27.6 167.44-30.53 169.53-33.45 173.11-35.05 176.69-36.65 181.09-36.65L181.09-36.65Q185.54-36.65 188.31-35.13 191.09-33.6 192.41-31.18 193.74-28.75 193.74-26L193.74-26Q193.74-23.65 192.86-21.33 191.99-19 190.36-17.1 188.74-15.2 186.54-14.05 184.34-12.9 181.69-12.9L181.69-12.9Q178.94-12.9 175.99-14.3L175.99-14.3Q175.34-11.85 174.84-9.33 174.34-6.8 174.34-4.15L174.34-4.15Q174.34-2.85 174.49-1.55L174.49-1.55Q173.64-0.7 172.51-0.25 171.39 0.2 170.28 0.2ZM178.28-17.9L178.28-17.9Q180.28-17.9 181.78-19.03 183.28-20.15 184.11-21.88 184.94-23.6 184.94-25.35L184.94-25.35Q184.94-27.4 183.61-29 182.28-30.6 179.28-30.6L179.28-30.6Q178.89-30.6 178.36-30.55 177.84-30.5 177.28-30.4L177.28-30.4Q177.69-29.15 177.81-27.93 177.94-26.7 177.94-25.55L177.94-25.55Q177.94-23.55 177.64-21.7 177.34-19.85 176.94-18.05L176.94-18.05Q177.64-17.9 178.28-17.9ZM207.38 0.35L207.38 0.35Q203.63 0.35 201.18-1.15 198.73-2.65 197.56-5.13 196.38-7.6 196.38-10.4L196.38-10.4Q196.38-13.05 197.36-15.7 198.33-18.35 200.21-20.53 202.08-22.7 204.78-24.03 207.48-25.35 210.98-25.35L210.98-25.35Q214.73-25.35 217.16-23.83 219.58-22.3 220.76-19.8 221.93-17.3 221.93-14.45L221.93-14.45Q221.93-11.85 220.98-9.22 220.03-6.6 218.16-4.42 216.28-2.25 213.58-0.95 210.88 0.35 207.38 0.35ZM208.73-3.9L208.73-3.9Q210.08-3.9 210.98-5.3 211.88-6.7 212.33-8.88 212.78-11.05 212.78-13.3L212.78-13.3Q212.78-15.3 212.41-17.07 212.03-18.85 211.28-19.98 210.53-21.1 209.33-21.1L209.33-21.1Q208.03-21.1 207.11-19.7 206.18-18.3 205.73-16.15 205.28-14 205.28-11.7L205.28-11.7Q205.28-9.7 205.66-7.93 206.03-6.15 206.78-5.03 207.53-3.9 208.73-3.9ZM231.98 0.2L231.98 0.2Q230.18 0.2 228.61-1.05 227.03-2.3 226.06-4.7 225.08-7.1 225.08-10.5L225.08-10.5Q225.08-14 226.08-16.75 227.08-19.5 228.71-21.43 230.33-23.35 232.26-24.35 234.18-25.35 236.03-25.35L236.03-25.35Q238.08-25.35 239.68-24.08 241.28-22.8 241.88-20.1L241.88-20.1Q242.33-22.6 242.66-24.88 242.98-27.15 242.98-28.9L242.98-28.9Q242.98-31.2 242.38-32.25L242.38-32.25 242.38-32.55Q243.53-33.85 244.91-34.48 246.28-35.1 247.53-35.1L247.53-35.1Q249.18-35.1 250.33-34.08 251.48-33.05 251.48-31.15L251.48-31.15Q251.48-30.1 251.13-28.05 250.78-26 250.28-23.38 249.78-20.75 249.26-17.98 248.73-15.2 248.38-12.68 248.03-10.15 248.03-8.3L248.03-8.3Q248.03-6.75 248.36-5.83 248.68-4.9 249.43-4.9L249.43-4.9Q249.98-4.9 250.56-5.28 251.13-5.65 251.33-6.15L251.33-6.15 251.68-5.9Q251.68-4.25 250.63-2.88 249.58-1.5 247.98-0.65 246.38 0.2 244.68 0.2L244.68 0.2Q242.83 0.2 241.76-0.83 240.68-1.85 240.23-3.45 239.78-5.05 239.73-6.75L239.73-6.75Q238.18-3.15 236.11-1.48 234.03 0.2 231.98 0.2ZM235.33-6.15L235.33-6.15Q236.63-6.15 238.23-8.5 239.83-10.85 241.03-15.35L241.03-15.35 241.33-16.9Q240.53-18.75 239.61-19.53 238.68-20.3 237.83-20.3L237.83-20.3Q236.58-20.3 235.48-18.93 234.38-17.55 233.71-15.43 233.03-13.3 233.03-10.95L233.03-10.95Q233.03-8.7 233.68-7.43 234.33-6.15 235.33-6.15Z" fill="#ffffff" data-fill-palette-color="primary"/>
                              </g>
                            </svg>
                          </g>
                        </svg>
                      </g>
                    </svg>
                  </g>
                </svg>
              </g>
              <g transform="matrix(1,0,0,1,423.00989729254024,0)">
                <svg viewBox="0 0 141.7632235315075 141.7632235315075" height="141.7632235315075" width="141.7632235315075">
                  <g>
                    <svg/>
                  </g>
                  <g id="icon-0">
                    <svg viewBox="0 0 141.7632235315075 141.7632235315075" height="141.7632235315075" width="141.7632235315075">
                      <g>
                        <path d="M0 70.882c0-39.147 31.735-70.882 70.882-70.882 39.147 0 70.882 31.735 70.881 70.882 0 39.147-31.735 70.882-70.881 70.881-39.147 0-70.882-31.735-70.882-70.881zM70.882 136.513c36.247 0 65.631-29.384 65.631-65.631 0-36.247-29.384-65.631-65.631-65.631-36.247 0-65.631 29.384-65.631 65.631 0 36.247 29.384 65.631 65.631 65.631z" data-fill-palette-color="accent" fill="#ffffff" stroke="transparent"/>
                      </g>
                      <g transform="matrix(1,0,0,1,29.862553499182155,41.36805648288244)">
                        <svg viewBox="0 0 82.03811653314318 59.027110565742625" height="59.027110565742625" width="82.03811653314318">
                          <g>
                            <svg xmlns="http://www.w3.org/2000/svg" version="1.1" x="0" y="0" viewBox="3.909 16.83700000000001 92.181 66.32499999999999" enable-background="new 0 0 100 100" height="59.027110565742625" width="82.03811653314318" class="icon-cg-0" data-fill-palette-color="accent" id="cg-0">
                              <g fill="#ffffff" data-fill-palette-color="accent">
                                <path d="M81.186 83.162c-0.507 0-1.013-0.193-1.398-0.579-0.771-0.772-0.771-2.024 0-2.795 7.964-7.965 12.35-18.543 12.35-29.788 0-11.246-4.386-21.825-12.35-29.789-0.771-0.771-0.771-2.023 0-2.795 0.771-0.772 2.024-0.772 2.796 0C91.293 26.127 96.09 37.697 96.09 50c0 12.302-4.797 23.873-13.507 32.583C82.197 82.969 81.69 83.162 81.186 83.162z" fill="#ffffff" data-fill-palette-color="accent"/>
                              </g>
                              <g fill="#ffffff" data-fill-palette-color="accent">
                                <path d="M18.814 83.162c-0.506 0-1.013-0.193-1.398-0.579C8.706 73.873 3.909 62.302 3.909 50c0-12.303 4.797-23.873 13.507-32.583 0.772-0.772 2.023-0.771 2.796 0 0.771 0.772 0.771 2.023 0 2.795C12.248 28.175 7.862 38.754 7.862 50c0 11.245 4.386 21.823 12.35 29.788 0.771 0.771 0.771 2.022 0 2.795C19.826 82.969 19.32 83.162 18.814 83.162z" fill="#ffffff" data-fill-palette-color="accent"/>
                              </g>
                              <g fill="#ffffff" data-fill-palette-color="accent">
                                <path d="M26.61 75.366c-0.506 0-1.012-0.194-1.397-0.58-6.627-6.626-10.275-15.429-10.275-24.787 0-9.358 3.648-18.161 10.275-24.787 0.771-0.772 2.023-0.771 2.795 0 0.771 0.772 0.771 2.024 0 2.796-5.879 5.879-9.117 13.689-9.117 21.991 0 8.303 3.238 16.113 9.117 21.991 0.772 0.772 0.772 2.024 0 2.796C27.622 75.172 27.116 75.366 26.61 75.366z" fill="#ffffff" data-fill-palette-color="accent"/>
                              </g>
                              <g fill="#ffffff" data-fill-palette-color="accent">
                                <path d="M73.389 75.366c-0.507 0-1.012-0.194-1.397-0.58-0.772-0.771-0.772-2.023 0-2.796 5.879-5.878 9.118-13.688 9.118-21.991 0-8.301-3.238-16.112-9.118-21.991-0.772-0.772-0.772-2.023 0-2.796 0.772-0.771 2.022-0.771 2.795 0 6.626 6.626 10.275 15.429 10.275 24.787 0 9.358-3.649 18.161-10.275 24.787C74.4 75.172 73.895 75.366 73.389 75.366z" fill="#ffffff" data-fill-palette-color="accent"/>
                              </g>
                              <g fill="#ffffff" data-fill-palette-color="accent">
                                <path d="M65.592 67.568c-0.506 0-1.012-0.192-1.396-0.578-0.773-0.772-0.773-2.023 0-2.796C67.989 60.399 70.08 55.359 70.08 50c0-5.359-2.09-10.4-5.885-14.195-0.773-0.772-0.773-2.024 0-2.796 0.771-0.771 2.022-0.771 2.795 0 4.541 4.542 7.042 10.577 7.042 16.991 0 6.415-2.501 12.448-7.043 16.99C66.604 67.376 66.098 67.568 65.592 67.568z" fill="#ffffff" data-fill-palette-color="accent"/>
                              </g>
                              <g fill="#ffffff" data-fill-palette-color="accent">
                                <path d="M34.406 67.568c-0.506 0-1.012-0.192-1.397-0.578-9.368-9.368-9.368-24.612 0-33.981 0.772-0.771 2.024-0.771 2.796 0 0.771 0.772 0.771 2.023 0 2.796-7.828 7.827-7.828 20.563 0 28.391 0.771 0.772 0.771 2.022 0 2.795C35.418 67.376 34.912 67.568 34.406 67.568z" fill="#ffffff" data-fill-palette-color="accent"/>
                              </g>
                              <polygon points="58.564,50 43.679,57.278 43.679,50 43.679,42.72 " fill="#ffffff" data-fill-palette-color="accent"/>
                              <path d="M61.502 38.497c-6.357-6.357-16.646-6.357-23.005 0-6.357 6.358-6.357 16.648 0.001 23.006 6.357 6.356 16.646 6.356 23.004 0C67.86 55.145 67.86 44.854 61.502 38.497zM58.729 58.729c-4.824 4.824-12.634 4.824-17.46 0-4.825-4.825-4.825-12.635 0-17.459 4.826-4.825 12.635-4.825 17.46 0C63.555 46.095 63.555 53.904 58.729 58.729z" fill="#ffffff" data-fill-palette-color="accent"/>
                            </svg>
                          </g>
                        </svg>
                      </g>
                    </svg>
                  </g>
                </svg>
              </g>
            </svg>
          </g>
        </svg>
        <rect width="395.52" height="99.27914078023241" fill="none" stroke="none" visibility="hidden"/>
      </g>
    </svg>
  </g>
</svg>